HIERARCHY
ROOT Hips
{
	OFFSET 54.170898 -6.314314 86.598000
	CHANNELS 6 Xposition Yposition Zposition Xrotation Yrotation Zrotation
	JOINT spine
	{
		OFFSET 0.000000 -0.393701 6.846367
		CHANNELS 3 Xrotation Yrotation Zrotation
		JOINT spine1
		{
			OFFSET 0.000000 -0.000001 9.496208
			CHANNELS 3 Xrotation Yrotation Zrotation
			JOINT spine2
			{
				OFFSET 0.000000 -0.000001 9.099091
				CHANNELS 3 Xrotation Yrotation Zrotation
				JOINT Neck
				{
					OFFSET 0.000000 -1.113784 23.361198
					CHANNELS 3 Xrotation Yrotation Zrotation
					JOINT Head
					{
						OFFSET 0.000000 -0.000001 7.058014
						CHANNELS 3 Xrotation Yrotation Zrotation
						End Site
						{
							OFFSET 0.000000 5.634188 17.084396
						}
					}
				}
				JOINT RightShoulder
				{
					OFFSET -3.831360 0.533489 9.826309
					CHANNELS 3 Xrotation Yrotation Zrotation
					JOINT RightArm
					{
						OFFSET 0.000000 -0.000002 12.888100
						CHANNELS 3 Xrotation Yrotation Zrotation
						JOINT RightArmRoll
						{
							OFFSET 0.000000 -0.000001 6.506165
							CHANNELS 3 Xrotation Yrotation Zrotation
							JOINT RightForeArm
							{
								OFFSET 0.000000 -0.000003 18.950104
								CHANNELS 3 Xrotation Yrotation Zrotation
								JOINT RightForeArmRoll
								{
									OFFSET 0.000000 -0.000001 7.300934
									CHANNELS 3 Xrotation Yrotation Zrotation
									JOINT RightHand
									{
										OFFSET 0.000000 -0.000002 14.651398
										CHANNELS 3 Xrotation Yrotation Zrotation
										End Site
										{
											OFFSET 0.000000 0.000000 0.100006
										}
									}
								}
							}
						}
					}
				}
				JOINT LeftShoulder
				{
					OFFSET 3.831360 0.533489 9.826309
					CHANNELS 3 Xrotation Yrotation Zrotation
					JOINT LeftArm
					{
						OFFSET 0.000000 -0.000002 12.888100
						CHANNELS 3 Xrotation Yrotation Zrotation
						JOINT LeftArmRoll
						{
							OFFSET 0.000000 -0.000001 6.506165
							CHANNELS 3 Xrotation Yrotation Zrotation
							JOINT LeftForeArm
							{
								OFFSET 0.000000 -0.000003 18.950104
								CHANNELS 3 Xrotation Yrotation Zrotation
								JOINT LeftForeArmRoll
								{
									OFFSET 0.000000 -0.000001 7.300934
									CHANNELS 3 Xrotation Yrotation Zrotation
									JOINT LeftHand
									{
										OFFSET 0.000000 -0.000002 14.651398
										CHANNELS 3 Xrotation Yrotation Zrotation
										End Site
										{
											OFFSET 0.000000 0.000000 0.100006
										}
									}
								}
							}
						}
					}
				}
			}
		}
	}
	JOINT RightUpLeg
	{
		OFFSET -6.068371 0.933477 -1.112778
		CHANNELS 3 Xrotation Yrotation Zrotation
		JOINT RightUpLegRoll
		{
			OFFSET 0.000000 -0.000003 17.179604
			CHANNELS 3 Xrotation Yrotation Zrotation
			JOINT RightLeg
			{
				OFFSET 0.000000 0.000003 -21.274300
				CHANNELS 3 Xrotation Yrotation Zrotation
				JOINT RightLegRoll
				{
					OFFSET 0.000000 -0.000003 21.343903
					CHANNELS 3 Xrotation Yrotation Zrotation
					JOINT RightFoot
					{
						OFFSET 0.000000 -0.000003 17.765198
						CHANNELS 3 Xrotation Yrotation Zrotation
						JOINT RightToeBase
						{
							OFFSET 0.000000 -0.000002 14.850807
							CHANNELS 3 Xrotation Yrotation Zrotation
							End Site
							{
								OFFSET 0.006294 0.829004 7.192123
							}
						}
					}
				}
			}
		}
	}
	JOINT LeftUpLeg
	{
		OFFSET 6.068371 0.933477 -1.112778
		CHANNELS 3 Xrotation Yrotation Zrotation
		JOINT LeftUpLegRoll
		{
			OFFSET 0.000000 -0.000003 17.179703
			CHANNELS 3 Xrotation Yrotation Zrotation
			JOINT LeftLeg
			{
				OFFSET 0.000000 -0.000003 21.274200
				CHANNELS 3 Xrotation Yrotation Zrotation
				JOINT LeftLegRoll
				{
					OFFSET 0.000000 -0.000004 21.541206
					CHANNELS 3 Xrotation Yrotation Zrotation
					JOINT LeftFoot
					{
						OFFSET 0.000000 -0.000003 17.567902
						CHANNELS 3 Xrotation Yrotation Zrotation
						JOINT LeftToeBase
						{
							OFFSET 0.000000 -0.000002 14.850800
							CHANNELS 3 Xrotation Yrotation Zrotation
							End Site
							{
								OFFSET -0.028210 0.829003 7.192139
							}
						}
					}
				}
			}
		}
	}
}
MOTION
Frames: 12
Frame Time: 0.041667
52.048897 -8.155575 86.847603 1.790043 -1.361396 -1.338177 -2.026984 -1.285626 0.951131 -0.029964 -2.595441 1.870223 1.615439 -2.572849 1.900935 6.622682 14.906468 -3.214068 9.546999 -11.489319 -3.235540 -16.597971 -52.971795 -19.519364 -69.284052 -101.043189 -37.245766 -0.000002 0.000001 -0.000004 2.567730 -9.998355 -0.239330 -0.000001 0.000000 -3.006322 -5.000240 -7.998782 0.000152 -28.654556 72.248525 33.027216 -80.806930 112.617149 51.578559 -0.000002 -0.000005 0.000008 4.603232 13.452560 -1.098115 -0.000011 -0.000015 3.005437 -5.000188 7.998735 -0.000185 -16.633305 -177.073556 -2.599615 -179.999991 0.000005 -0.981999 156.280670 -2.274397 -1.258949 -0.000004 -0.000000 0.533968 73.360002 6.594022 2.665159 25.456892 -7.351351 -0.000006 -11.535957 179.543407 1.861502 -0.000004 -0.000004 -1.019420 -21.872470 1.214309 1.054243 0.000000 -0.000001 -0.582808 76.487409 -6.220748 -3.668583 25.456901 7.354640 -0.000003 
52.051697 -8.155626 86.842796 1.793794 -1.362412 -1.339686 -2.026880 -1.284337 0.952150 -0.029751 -2.593230 1.872274 1.615647 -2.570590 1.902971 6.612484 14.911833 -3.216561 9.535230 -11.491089 -3.241018 -16.588279 -52.979455 -19.507563 -69.271266 -101.136626 -37.333138 -0.000003 0.000003 -0.000005 2.671632 -10.041697 -0.233950 0.000002 0.000001 -3.006319 -5.000241 -7.998783 0.000150 -28.641685 72.250342 33.012961 -80.837229 112.697233 51.667157 0.000005 -0.000005 0.000006 4.649749 13.476034 -1.101956 -0.000013 -0.000015 3.005444 -5.000194 7.998733 -0.000184 -16.634890 -177.035252 -2.536012 -179.999991 0.000005 -0.981999 156.296120 -2.334198 -1.263434 -0.000004 -0.000000 0.529193 73.348896 6.607138 2.627539 25.456887 -7.351349 -0.000005 -11.522553 179.543380 1.856666 -0.000004 -0.000004 -1.019420 -21.852214 1.220153 1.054258 0.000000 -0.000001 -0.582808 76.484656 -6.222210 -3.662508 25.456902 7.354641 -0.000003 
52.061794 -8.133387 86.863907 1.797340 -1.363259 -1.341385 -2.026797 -1.283097 0.953208 -0.029569 -2.591129 1.874403 1.615824 -2.568431 1.905088 6.602901 14.916981 -3.219160 9.522891 -11.492479 -3.246603 -16.578455 -52.987344 -19.495602 -69.261151 -101.229885 -37.422186 -0.000001 0.000000 -0.000006 2.775515 -10.084703 -0.228430 0.000002 0.000000 -3.006323 -5.000242 -7.998783 0.000149 -28.628910 72.252480 32.998789 -80.867480 112.778130 51.755379 0.000003 -0.000005 0.000007 4.695985 13.499209 -1.105810 -0.000010 -0.000016 3.005439 -5.000189 7.998735 -0.000187 -16.636003 -176.995979 -2.470060 -179.999991 0.000005 -0.981999 156.312130 -2.395863 -1.268683 -0.000004 -0.000000 0.524238 73.337551 6.620727 2.588403 25.456889 -7.351350 -0.000005 -11.508751 179.543366 1.851265 -0.000003 -0.000004 -1.019420 -21.831759 1.226334 1.054266 0.000001 -0.000001 -0.582808 76.482143 -6.223732 -3.656128 25.456899 7.354641 -0.000003 
52.057995 -8.131157 86.880402 1.800722 -1.363986 -1.343232 -2.026719 -1.281888 0.954291 -0.029409 -2.589119 1.876571 1.615981 -2.566351 1.907257 6.593746 14.921916 -3.221815 9.510155 -11.493585 -3.252258 -16.568577 -52.995544 -19.483572 -69.251097 -101.323049 -37.510443 -0.000002 0.000001 -0.000006 2.879413 -10.127664 -0.222742 0.000000 0.000000 -3.006321 -5.000242 -7.998782 0.000152 -28.616000 72.254748 32.984449 -80.896965 112.859478 51.842560 0.000001 -0.000004 0.000009 4.742032 13.522270 -1.109701 -0.000011 -0.000016 3.005438 -5.000190 7.998735 -0.000184 -16.636857 -176.954779 -2.402829 -179.999991 0.000005 -0.981999 156.328482 -2.458464 -1.272272 -0.000004 -0.000000 0.519156 73.326008 6.634634 2.548530 25.456892 -7.351350 -0.000005 -11.494553 179.543339 1.845492 -0.000003 -0.000005 -1.019420 -21.811311 1.232749 1.054272 0.000000 -0.000001 -0.582808 76.479773 -6.225299 -3.649443 25.456902 7.354640 -0.000003 
52.057796 -8.129076 86.878502 1.804022 -1.364644 -1.345143 -2.026647 -1.280699 0.955384 -0.029262 -2.587150 1.878769 1.616129 -2.564303 1.909456 6.584849 14.926847 -3.224524 9.497200 -11.494603 -3.257961 -16.558638 -53.003846 -19.471464 -69.241548 -101.416302 -37.598651 -0.000000 0.000000 -0.000003 2.983306 -10.170492 -0.216911 0.000002 0.000001 -3.006320 -5.000240 -7.998784 0.000152 -28.603229 72.257213 32.970259 -80.926424 112.941112 51.929474 0.000001 -0.000006 0.000005 4.787987 13.545127 -1.113611 -0.000012 -0.000015 3.005441 -5.000193 7.998735 -0.000184 -16.637414 -176.913579 -2.334543 -179.999991 0.000005 -0.981998 156.345079 -2.522913 -1.277625 -0.000004 -0.000000 0.514003 73.314328 6.648741 2.508096 25.456889 -7.351350 -0.000006 -11.480151 179.543311 1.839487 -0.000004 -0.000004 -1.019420 -21.790662 1.239315 1.054277 0.000002 -0.000001 -0.582808 76.477512 -6.226902 -3.642560 25.456902 7.354639 -0.000003 
52.057896 -8.122135 86.865997 1.807305 -1.365281 -1.347084 -2.026585 -1.279509 0.956488 -0.029117 -2.585189 1.880977 1.616277 -2.562273 1.911655 6.575999 14.931673 -3.227224 9.484190 -11.495620 -3.263657 -16.548674 -53.012158 -19.459352 -69.231658 -101.509807 -37.686419 0.000000 0.000003 -0.000006 3.087244 -10.213271 -0.210917 -0.000002 0.000001 -3.006323 -5.000241 -7.998782 0.000149 -28.590444 72.259693 32.956062 -80.955043 113.022904 52.015582 0.000001 -0.000005 0.000007 4.833923 13.568071 -1.117575 -0.000014 -0.000016 3.005441 -5.000195 7.998734 -0.000187 -16.637982 -176.872379 -2.265998 -179.999991 0.000005 -0.981001 156.361758 -2.586468 -1.281525 -0.000004 -0.000000 0.508831 73.302594 6.662954 2.467387 25.456889 -7.351350 -0.000005 -11.465748 179.543284 1.833432 -0.000003 -0.000004 -1.019420 -21.770115 1.245901 1.054274 0.000001 -0.000001 -0.582808 76.475162 -6.228546 -3.635785 25.456902 7.354640 -0.000003 
52.050396 -8.118586 86.867889 1.810616 -1.365948 -1.348984 -2.026513 -1.278321 0.957581 -0.028967 -2.583210 1.883174 1.616424 -2.560224 1.913854 6.567038 14.936599 -3.229914 9.471290 -11.496731 -3.269336 -16.538721 -53.020354 -19.447224 -69.220368 -101.603551 -37.772811 -0.000000 0.000000 -0.000003 3.191199 -10.256214 -0.204763 -0.000003 0.000003 -3.006320 -5.000238 -7.998783 0.000144 -28.577525 72.262049 32.941729 -80.983190 113.104627 52.101199 0.000000 -0.000007 0.000007 4.879913 13.591002 -1.121569 -0.000012 -0.000015 3.005442 -5.000191 7.998734 -0.000187 -16.638559 -176.831180 -2.197971 -179.999991 0.000005 -0.981001 156.378301 -2.650050 -1.286409 -0.000004 -0.000000 0.503696 73.290928 6.677087 2.427061 25.456892 -7.351351 -0.000006 -11.451350 179.542287 1.827686 -0.000004 -0.000004 -1.019420 -21.749564 1.252424 1.054266 0.000000 -0.000001 -0.582808 76.472799 -6.230143 -3.629006 25.456902 7.354640 -0.000003 
52.050697 -8.109804 86.846794 1.814044 -1.366715 -1.350778 -2.026434 -1.277101 0.958656 -0.028801 -2.581169 1.885333 1.616592 -2.558112 1.916001 6.557761 14.941638 -3.232552 9.458669 -11.497932 -3.274973 -16.528882 -53.028554 -19.435244 -69.206564 -101.697726 -37.857157 0.000000 0.000001 -0.000004 3.295221 -10.299211 -0.198450 -0.000002 0.000002 -3.006320 -5.000241 -7.998783 0.000147 -28.564690 72.264310 32.927485 -81.010606 113.186186 52.186245 0.000004 -0.000004 0.000009 4.926068 13.614121 -1.125617 -0.000012 -0.000015 3.005441 -5.000192 7.998734 -0.000187 -16.639331 -176.790936 -2.130972 -179.999991 0.000005 -0.981001 156.394448 -2.712700 -1.289854 -0.000004 -0.000000 0.498650 73.279419 6.691014 2.387400 25.456892 -7.351350 -0.000006 -11.437251 179.542273 1.822013 -0.000004 -0.000004 -1.019420 -21.729115 1.258780 1.054257 0.000000 -0.000001 -0.582808 76.470409 -6.231690 -3.622420 25.456901 7.354641 -0.000003 
52.042095 -8.119746 86.846893 1.817646 -1.367612 -1.352424 -2.026343 -1.275842 0.959703 -0.028610 -2.579040 1.887432 1.616780 -2.555934 1.918099 6.547993 14.946894 -3.235105 9.446494 -11.499412 -3.280532 -16.519048 -53.036334 -19.423268 -69.190062 -101.792454 -37.939344 0.000000 0.000000 -0.000006 3.399293 -10.342366 -0.191978 -0.000002 0.000000 -3.006323 -5.000238 -7.998781 0.000153 -28.551874 72.266338 32.913261 -81.037456 113.267356 52.271024 0.000003 -0.000004 0.000008 4.972450 13.637420 -1.129713 -0.000012 -0.000016 3.005443 -5.000189 7.998735 -0.000185 -16.640509 -176.750706 -2.066098 -179.999991 0.000005 -0.981001 156.410103 -2.773542 -1.294502 -0.000003 -0.000000 0.493749 73.268191 6.704579 2.348873 25.456892 -7.351350 -0.000005 -11.423552 179.542246 1.816794 -0.000004 -0.000005 -1.019420 -21.708761 1.264858 1.054240 0.000000 -0.000001 -0.582808 76.467793 -6.233204 -3.616146 25.456899 7.354639 -0.000003 
52.044697 -8.114778 86.849594 1.821490 -1.368698 -1.353847 -2.026232 -1.274543 0.960711 -0.028385 -2.576790 1.889454 1.616996 -2.553635 1.920114 6.537545 14.952360 -3.237552 9.434946 -11.501170 -3.286001 -16.509349 -53.043789 -19.411459 -69.170166 -101.887906 -38.019176 -0.000001 0.000002 -0.000004 3.503440 -10.385879 -0.185326 -0.000002 0.000003 -3.006320 -5.000238 -7.998782 0.000152 -28.539015 72.268039 32.899017 -81.063158 113.347898 52.354804 -0.000002 -0.000005 0.000006 5.019152 13.661000 -1.133878 -0.000016 -0.000015 3.005440 -5.000191 7.998733 -0.000185 -16.642155 -176.713345 -2.003273 -179.999991 0.000005 -0.981001 156.425156 -2.832543 -1.298329 -0.000004 -0.000000 0.489046 73.257413 6.717624 2.311743 25.456890 -7.351349 -0.000005 -11.410450 179.543202 1.811982 -0.000003 -0.000005 -1.019420 -21.688506 1.270565 1.054219 -0.000001 -0.000001 -0.582808 76.465020 -6.234619 -3.610266 25.456901 7.354641 -0.000003 
52.037197 -8.115489 86.841705 1.825642 -1.370034 -1.355005 -2.026100 -1.273174 0.961663 -0.028116 -2.574370 1.891387 1.617264 -2.551184 1.922026 6.526228 14.958155 -3.239866 9.424181 -11.503499 -3.291305 -16.499811 -53.050814 -19.399827 -69.145932 -101.984075 -38.095971 0.000001 -0.000001 -0.000003 3.607673 -10.429750 -0.178503 -0.000001 0.000001 -3.006320 -5.000239 -7.998781 0.000149 -28.526063 72.269296 32.884700 -81.088136 113.427667 52.438368 0.000003 -0.000004 0.000009 5.066257 13.684959 -1.138105 -0.000015 -0.000017 3.005439 -5.000192 7.998732 -0.000186 -16.644379 -176.676981 -1.943856 -179.999991 0.000005 -0.981002 156.439172 -2.887865 -1.302586 -0.000005 -0.000000 0.484594 73.246969 6.730120 2.276315 25.456892 -7.351350 -0.000005 -11.398149 179.543175 1.808154 -0.000005 -0.000004 -1.019420 -21.668444 1.275789 1.054192 0.000001 -0.000001 -0.582808 76.462055 -6.235890 -3.604881 25.456904 7.354640 -0.000003 
52.035297 -8.111403 86.865189 1.830153 -1.371660 -1.355825 -2.025939 -1.271735 0.962557 -0.027795 -2.571760 1.893182 1.617580 -2.548566 1.923806 6.513868 14.964374 -3.242003 9.414361 -11.506283 -3.296453 -16.490409 -53.057213 -19.388363 -69.116528 -102.081234 -38.169088 -0.000002 0.000000 -0.000004 3.712005 -10.473974 -0.171504 0.000000 0.000001 -3.006321 -5.000239 -7.998782 0.000150 -28.513024 72.270020 32.870347 -81.112089 113.506488 52.521481 0.000004 -0.000006 0.000008 5.113854 13.709395 -1.142415 -0.000011 -0.000014 3.005442 -5.000192 7.998733 -0.000188 -16.647283 -176.642516 -1.888359 -179.999991 0.000005 -0.981001 156.452245 -2.939520 -1.305273 -0.000004 -0.000000 0.480449 73.237168 6.741780 2.243230 25.456892 -7.351350 -0.000005 -11.386647 179.544158 1.805062 -0.000004 -0.000004 -1.019420 -21.648682 1.280425 1.054159 -0.000001 -0.000001 -0.582808 76.458709 -6.237025 -3.600203 25.456899 7.354639 -0.000003 
